<svg width="512" height="512" viewBox="0 0 512 512" fill="none" xmlns="http://www.w3.org/2000/svg">
<rect width="512" height="512" fill="#B45309"/>
<circle cx="256" cy="256" r="180" fill="#FBBF24"/>
<path d="M256 76C156.6 76 76 156.6 76 256C76 355.4 156.6 436 256 436C355.4 436 436 355.4 436 256C436 156.6 355.4 76 256 76ZM256 412C170.92 412 100 341.08 100 256C100 170.92 170.92 100 256 100C341.08 100 412 170.92 412 256C412 341.08 341.08 412 256 412Z" fill="#78350F" fill-opacity="0.2"/>
<path d="M256 128C198.44 128 152 174.44 152 232C152 263.2 165.68 291.12 187.4 309.8C189.96 312 193.28 311.64 195.4 309.4C197.52 307.16 197.84 303.88 196.2 301.24C177.36 285.24 164 259.88 164 232C164 180.44 204.44 140 256 140C307.56 140 348 180.44 348 232C348 259.88 334.64 285.24 315.8 301.24C314.16 303.88 314.48 307.16 316.6 309.4C318.72 311.64 322.04 312 324.6 309.8C346.32 291.12 360 263.2 360 232C360 174.44 313.56 128 256 128Z" fill="#78350F" fill-opacity="0.2"/>
<text x="50%" y="55%" dominant-baseline="middle" text-anchor="middle" font-family="Dancing Script, cursive" font-size="160" fill="#78350F" font-weight="700">R</text>
</svg>
